<svg width="30" height="30" viewBox="0 0 30 30" fill="none" xmlns="http://www.w3.org/2000/svg">
<path fill-rule="evenodd" clip-rule="evenodd" d="M15 28C22.1797 28 28 22.1797 28 15C28 7.8203 22.1797 2 15 2C7.8203 2 2 7.8203 2 15C2 22.1797 7.8203 28 15 28ZM15 29C22.732 29 29 22.732 29 15C29 7.26801 22.732 1 15 1C7.26801 1 1 7.26801 1 15C1 22.732 7.26801 29 15 29ZM14.5 14.5V8.77776H15.5V14.5H21.2221V15.5H15.5V21.2222H14.5V15.5H8.77763V14.5H14.5Z" fill="white"/>
<path d="M14.5 8.77776V8.27776H14V8.77776H14.5ZM14.5 14.5V15H15V14.5H14.5ZM15.5 8.77776H16V8.27776H15.5V8.77776ZM15.5 14.5H15V15H15.5V14.5ZM21.2221 14.5H21.7221V14H21.2221V14.5ZM21.2221 15.5V16H21.7221V15.5H21.2221ZM15.5 15.5V15H15V15.5H15.5ZM15.5 21.2222V21.7222H16V21.2222H15.5ZM14.5 21.2222H14V21.7222H14.5V21.2222ZM14.5 15.5H15V15H14.5V15.5ZM8.77763 15.5H8.27763V16H8.77763V15.5ZM8.77763 14.5V14H8.27763V14.5H8.77763ZM27.5 15C27.5 21.9036 21.9036 27.5 15 27.5V28.5C22.4558 28.5 28.5 22.4558 28.5 15H27.5ZM15 2.5C21.9036 2.5 27.5 8.09644 27.5 15H28.5C28.5 7.54416 22.4558 1.5 15 1.5V2.5ZM2.5 15C2.5 8.09644 8.09644 2.5 15 2.5V1.5C7.54416 1.5 1.5 7.54416 1.5 15H2.5ZM15 27.5C8.09644 27.5 2.5 21.9036 2.5 15H1.5C1.5 22.4558 7.54416 28.5 15 28.5V27.5ZM28.5 15C28.5 22.4558 22.4558 28.5 15 28.5V29.5C23.0081 29.5 29.5 23.0081 29.5 15H28.5ZM15 1.5C22.4558 1.5 28.5 7.54416 28.5 15H29.5C29.5 6.99187 23.0081 0.5 15 0.5V1.5ZM1.5 15C1.5 7.54416 7.54416 1.5 15 1.5V0.5C6.99187 0.5 0.5 6.99187 0.5 15H1.5ZM15 28.5C7.54416 28.5 1.5 22.4558 1.5 15H0.5C0.5 23.0081 6.99187 29.5 15 29.5V28.5ZM14 8.77776V14.5H15V8.77776H14ZM15.5 8.27776H14.5V9.27776H15.5V8.27776ZM16 14.5V8.77776H15V14.5H16ZM15.5 15H21.2221V14H15.5V15ZM20.7221 14.5V15.5H21.7221V14.5H20.7221ZM21.2221 15H15.5V16H21.2221V15ZM16 21.2222V15.5H15V21.2222H16ZM14.5 21.7222H15.5V20.7222H14.5V21.7222ZM14 15.5V21.2222H15V15.5H14ZM14.5 15H8.77763V16H14.5V15ZM9.27763 15.5V14.5H8.27763V15.5H9.27763ZM8.77763 15H14.5V14H8.77763V15Z" fill="white"/>
</svg>
