<svg width="34" height="29" viewBox="0 0 34 29" fill="none" xmlns="http://www.w3.org/2000/svg">
<path d="M4.70588 3.82353H32L26.9176 17H9.6L4.70588 3.82353ZM4.70588 3.82353L2.82353 1H0H3M9.6 16.0588V20.7647H28.2353M13.1765 25C13.1765 26.2995 12.123 27.3529 10.8235 27.3529C9.52404 27.3529 8.47059 26.2995 8.47059 25C8.47059 23.7005 9.52404 22.6471 10.8235 22.6471C12.123 22.6471 13.1765 23.7005 13.1765 25ZM28.2353 25C28.2353 26.2995 27.1818 27.3529 25.8824 27.3529C24.5829 27.3529 23.5294 26.2995 23.5294 25C23.5294 23.7005 24.5829 22.6471 25.8824 22.6471C27.1818 22.6471 28.2353 23.7005 28.2353 25ZM5 4H32L26.5 17H9.5L5 4Z" stroke="black" stroke-width="2"/>
</svg>
