<svg width="20" height="20" viewBox="0 0 20 20" fill="none" xmlns="http://www.w3.org/2000/svg">
<path d="M9.98605 13.6985C10.2434 13.6751 10.4697 13.6205 10.6647 13.5347C10.8597 13.445 11.0234 13.3319 11.156 13.1954C11.2925 13.0589 11.394 12.901 11.4603 12.7216C11.5304 12.5383 11.5655 12.3374 11.5655 12.119C11.5655 11.924 11.5285 11.7563 11.4544 11.6159C11.3842 11.4755 11.2867 11.3546 11.1619 11.2532C11.0371 11.1479 10.8909 11.0602 10.7231 10.99C10.5554 10.9159 10.376 10.8476 10.1849 10.7852L9.98605 13.6985ZM9.793 6.93595C9.5395 6.95935 9.31915 7.01005 9.13195 7.08805C8.94865 7.16605 8.79655 7.26355 8.67565 7.38055C8.55475 7.49755 8.46505 7.63015 8.40655 7.77835C8.34805 7.92265 8.3188 8.07475 8.3188 8.23465C8.3188 8.42185 8.35195 8.58565 8.41825 8.72605C8.48455 8.86255 8.5762 8.98345 8.6932 9.08875C8.8102 9.19405 8.9467 9.2857 9.1027 9.3637C9.2587 9.4417 9.42835 9.5119 9.61165 9.5743L9.793 6.93595ZM10.2552 9.77905C10.536 9.86875 10.8128 9.9643 11.0858 10.0657C11.3588 10.1671 11.6046 10.2977 11.8229 10.4576C12.0413 10.6175 12.2168 10.8184 12.3495 11.0602C12.4859 11.2981 12.5542 11.5964 12.5542 11.9552C12.5542 12.3062 12.4957 12.6358 12.3787 12.9439C12.2617 13.252 12.0901 13.523 11.8639 13.757C11.6416 13.991 11.3666 14.1821 11.039 14.3303C10.7153 14.4746 10.3449 14.5604 9.92755 14.5877L9.85735 15.6115C9.85345 15.6856 9.8242 15.7499 9.7696 15.8045C9.715 15.863 9.64675 15.8923 9.56485 15.8923H9.17875L9.2665 14.576C8.7946 14.5292 8.36365 14.4122 7.97365 14.225C7.58755 14.0339 7.2541 13.7921 6.9733 13.4996L7.2892 13.0199C7.3204 12.977 7.3594 12.9419 7.4062 12.9146C7.453 12.8873 7.5037 12.8737 7.5583 12.8737C7.6324 12.8737 7.71625 12.9107 7.80985 12.9848C7.90345 13.0589 8.0185 13.1428 8.155 13.2364C8.2954 13.33 8.4592 13.4216 8.6464 13.5113C8.8375 13.601 9.06565 13.6615 9.33085 13.6927L9.54145 10.5863C9.26845 10.5044 8.99935 10.4128 8.73415 10.3114C8.47285 10.21 8.2369 10.0754 8.0263 9.90775C7.8196 9.74005 7.6519 9.5314 7.5232 9.2818C7.3984 9.0322 7.336 8.71825 7.336 8.33995C7.336 8.05525 7.3906 7.77835 7.4998 7.50925C7.6129 7.23625 7.7767 6.99445 7.9912 6.78385C8.2057 6.57325 8.46895 6.40165 8.78095 6.26905C9.09295 6.13255 9.4498 6.0565 9.8515 6.0409L9.91 5.1985C9.9139 5.1244 9.9412 5.0581 9.9919 4.9996C10.0465 4.9411 10.1167 4.91185 10.2025 4.91185H10.5886L10.5125 6.0643C10.9181 6.115 11.2691 6.2203 11.5655 6.3802C11.8658 6.5401 12.1311 6.7351 12.3612 6.9652L12.1096 7.3513C12.0316 7.4683 11.9419 7.5268 11.8405 7.5268C11.7859 7.5268 11.7176 7.5034 11.6357 7.4566C11.5577 7.4059 11.4622 7.3474 11.3491 7.2811C11.2399 7.2148 11.1093 7.15045 10.9572 7.08805C10.809 7.02565 10.6393 6.97885 10.4482 6.94765L10.2552 9.77905Z" fill="black"/>
<path d="M10 19.5C15.2467 19.5 19.5 15.2467 19.5 10C19.5 4.75329 15.2467 0.5 10 0.5C4.75329 0.5 0.5 4.75329 0.5 10C0.5 15.2467 4.75329 19.5 10 19.5Z" stroke="black"/>
</svg>
