<svg width="30" height="30" viewBox="0 0 30 30" fill="none" xmlns="http://www.w3.org/2000/svg">
<path fill-rule="evenodd" clip-rule="evenodd" d="M15 28C22.1797 28 28 22.1797 28 15C28 7.8203 22.1797 2 15 2C7.8203 2 2 7.8203 2 15C2 22.1797 7.8203 28 15 28ZM15 29C22.732 29 29 22.732 29 15C29 7.26801 22.732 1 15 1C7.26801 1 1 7.26801 1 15C1 22.732 7.26801 29 15 29ZM15 14.2929L19.0462 10.2467L19.7533 10.9538L15.7071 15L19.7533 19.0462L19.0462 19.7533L15 15.7071L10.9538 19.7534L10.2467 19.0463L14.2929 15L10.2466 10.9538L10.9537 10.2467L15 14.2929Z" fill="black"/>
<path d="M19.0462 10.2467L19.3998 9.89315L19.0462 9.5396L18.6927 9.89315L19.0462 10.2467ZM15 14.2929L14.6464 14.6465L15 15L15.3535 14.6465L15 14.2929ZM19.7533 10.9538L20.1069 11.3074L20.4604 10.9538L20.1069 10.6003L19.7533 10.9538ZM15.7071 15L15.3535 14.6465L15 15L15.3535 15.3536L15.7071 15ZM19.7533 19.0462L20.1068 19.3998L20.4604 19.0462L20.1068 18.6927L19.7533 19.0462ZM19.0462 19.7533L18.6926 20.1069L19.0462 20.4604L19.3997 20.1069L19.0462 19.7533ZM15 15.7071L15.3535 15.3536L15 15L14.6464 15.3536L15 15.7071ZM10.9538 19.7534L10.6002 20.1069L10.9538 20.4605L11.3073 20.1069L10.9538 19.7534ZM10.2467 19.0463L9.8931 18.6927L9.53955 19.0463L9.8931 19.3998L10.2467 19.0463ZM14.2929 15L14.6464 15.3536L15 15L14.6464 14.6465L14.2929 15ZM10.2466 10.9538L9.89306 10.6002L9.53951 10.9538L9.89306 11.3073L10.2466 10.9538ZM10.9537 10.2467L11.3073 9.89312L10.9537 9.53956L10.6002 9.89312L10.9537 10.2467ZM27.5 15C27.5 21.9036 21.9036 27.5 15 27.5V28.5C22.4558 28.5 28.5 22.4558 28.5 15H27.5ZM15 2.5C21.9036 2.5 27.5 8.09644 27.5 15H28.5C28.5 7.54416 22.4558 1.5 15 1.5V2.5ZM2.5 15C2.5 8.09644 8.09644 2.5 15 2.5V1.5C7.54416 1.5 1.5 7.54416 1.5 15H2.5ZM15 27.5C8.09644 27.5 2.5 21.9036 2.5 15H1.5C1.5 22.4558 7.54416 28.5 15 28.5V27.5ZM28.5 15C28.5 22.4558 22.4558 28.5 15 28.5V29.5C23.0081 29.5 29.5 23.0081 29.5 15H28.5ZM15 1.5C22.4558 1.5 28.5 7.54416 28.5 15H29.5C29.5 6.99187 23.0081 0.5 15 0.5V1.5ZM1.5 15C1.5 7.54416 7.54416 1.5 15 1.5V0.5C6.99187 0.5 0.5 6.99187 0.5 15H1.5ZM15 28.5C7.54416 28.5 1.5 22.4558 1.5 15H0.5C0.5 23.0081 6.99187 29.5 15 29.5V28.5ZM18.6927 9.89315L14.6464 13.9394L15.3535 14.6465L19.3998 10.6003L18.6927 9.89315ZM20.1069 10.6003L19.3998 9.89315L18.6927 10.6003L19.3998 11.3074L20.1069 10.6003ZM16.0606 15.3536L20.1069 11.3074L19.3998 10.6003L15.3535 14.6465L16.0606 15.3536ZM15.3535 15.3536L19.3997 19.3998L20.1068 18.6927L16.0606 14.6465L15.3535 15.3536ZM19.3997 18.6927L18.6926 19.3998L19.3997 20.1069L20.1068 19.3998L19.3997 18.6927ZM19.3997 19.3998L15.3535 15.3536L14.6464 16.0607L18.6926 20.1069L19.3997 19.3998ZM11.3073 20.1069L15.3535 16.0607L14.6464 15.3536L10.6002 19.3998L11.3073 20.1069ZM9.8931 19.3998L10.6002 20.1069L11.3073 19.3998L10.6002 18.6927L9.8931 19.3998ZM13.9393 14.6465L9.8931 18.6927L10.6002 19.3998L14.6464 15.3536L13.9393 14.6465ZM14.6464 14.6465L10.6002 10.6002L9.89306 11.3073L13.9393 15.3536L14.6464 14.6465ZM10.6002 11.3073L11.3073 10.6002L10.6002 9.89312L9.89306 10.6002L10.6002 11.3073ZM10.6002 10.6002L14.6464 14.6465L15.3535 13.9394L11.3073 9.89312L10.6002 10.6002Z" fill="black"/>
</svg>
