<svg width="45" height="40" viewBox="0 0 45 40" fill="none" xmlns="http://www.w3.org/2000/svg">
<path d="M0.0903178 17.8145C-0.131414 18.3142 0.0678904 18.9006 0.548285 19.1617L4.86361 21.5064C5.33324 21.7616 5.91965 21.6228 6.22511 21.1843L9.57516 16.3751C11.3356 20.6603 10.1181 33.2954 9.56993 38.1086C9.51505 38.5899 9.66831 39.0718 9.99111 39.433C10.3139 39.7943 10.7755 40 11.2599 40H33.3953C33.8794 40 34.3402 39.7934 34.6627 39.4324C34.9852 39.0715 35.1401 38.5896 35.0854 38.1086C34.5373 33.2954 33.3198 20.6604 35.0802 16.3751L38.4302 21.1843C38.7357 21.6228 39.3221 21.7616 39.7917 21.5064L44.1072 19.1617C44.5876 18.9006 44.7869 18.3144 44.5652 17.8145L38.1288 3.31043C37.5019 1.89945 36.3227 0.804695 34.865 0.282884C34.479 0.144731 34.0826 0.0514335 33.6827 0H29.8524C29.3267 0 28.8744 0.366464 28.7639 0.880499C28.2377 3.32733 25.5565 5.18985 22.3278 5.18985C19.0992 5.18985 16.4179 3.32748 15.8918 0.880649C15.7814 0.36766 15.3279 0.000149434 14.8033 0.000149434H10.973C10.5732 0.0515829 10.1767 0.14503 9.79061 0.283034C8.33298 0.804844 7.15375 1.89975 6.52683 3.31058L0.0903178 17.8145Z" fill="var(--orange)"/>
</svg>
