<svg width="40" height="40" viewBox="0 0 40 40" fill="none" xmlns="http://www.w3.org/2000/svg">
<path d="M39.7666 19.4365L34.3755 14.0455V6.42134C34.3755 5.98126 34.0187 5.62453 33.5787 5.62453H25.9545L20.5634 0.233386C20.414 0.0839839 20.2113 0 19.9999 0C19.7885 0 19.586 0.0839839 19.4365 0.233386L14.0455 5.62453H6.42124C5.98124 5.62453 5.62443 5.98126 5.62443 6.42134V14.0455L0.233366 19.4365C-0.0777887 19.7477 -0.0777887 20.2522 0.233366 20.5635L5.62443 25.9545V33.5787C5.62443 34.0187 5.98124 34.3755 6.42124 34.3755H14.0455L19.4365 39.7666C19.586 39.916 19.7886 40 19.9999 40C20.2113 40 20.4139 39.916 20.5634 39.7666L25.9544 34.3755H33.5786C34.0186 34.3755 34.3754 34.0187 34.3754 33.5787V25.9545L39.7665 20.5635C40.0778 20.2522 40.0777 19.7477 39.7666 19.4365ZM33.0152 25.061C32.8658 25.2104 32.7818 25.4131 32.7818 25.6244V32.7818H25.6244C25.4131 32.7818 25.2104 32.8658 25.061 33.0152L19.9999 38.0763L14.9389 33.0152C14.7894 32.8658 14.5868 32.7818 14.3755 32.7818H7.21805V25.6245C7.21805 25.4132 7.13407 25.2105 6.98467 25.0611L1.92372 20L6.98475 14.9389C7.13415 14.7895 7.21813 14.5868 7.21813 14.3755V7.21815H14.3756C14.5869 7.21815 14.7895 7.13417 14.939 6.98477L19.9999 1.92366L25.061 6.98469C25.2104 7.13409 25.4131 7.21807 25.6244 7.21807H32.7818V14.3754C32.7818 14.5867 32.8658 14.7895 33.0152 14.9389L38.0762 20L33.0152 25.061Z" fill="var(--red)"/>
<path d="M14.5216 15.5541C14.0816 15.5541 13.7247 15.9108 13.7247 16.3509V20.8709L10.6357 15.9286C10.2211 15.2667 9.16332 15.5687 9.16332 16.3509V23.6491C9.16332 24.0892 9.52013 24.4459 9.96013 24.4459C10.4001 24.4459 10.7569 24.0892 10.7569 23.6491V19.1291L13.8459 24.0714C14.2593 24.7359 15.3184 24.4279 15.3184 23.6491V16.3509C15.3184 15.9108 14.9616 15.5541 14.5216 15.5541Z" fill="var(--red)"/>
<path d="M29.5118 24.2447C29.5104 24.2436 29.5104 24.2435 29.5118 24.2447Z" fill="var(--red)"/>
<path d="M30.8366 23.6491V16.3509C30.8366 15.9108 30.4798 15.5541 30.0398 15.5541C29.5998 15.5541 29.243 15.9108 29.243 16.3509V21.2103L28.0772 19.6169C27.7642 19.1874 27.1045 19.1867 26.7904 19.6153L25.6099 21.2201L25.6113 16.351C25.6115 15.911 25.2548 15.5542 24.8148 15.554H24.8145C24.3746 15.554 24.0179 15.9106 24.0177 16.3506L24.0156 23.6488C24.0156 24.3982 25.0066 24.7297 25.4544 24.1211L27.4316 21.4333L29.3967 24.1195C29.4301 24.1654 29.4704 24.2082 29.5128 24.2457C30.0179 24.6921 30.8366 24.3207 30.8366 23.6491Z" fill="var(--red)"/>
<path d="M29.5128 24.2457C29.5122 24.2451 29.5121 24.2451 29.5118 24.2447C29.5379 24.2678 29.9847 24.6628 29.5128 24.2457Z" fill="var(--red)"/>
<path d="M21.9718 17.1477C22.4118 17.1477 22.7686 16.791 22.7686 16.3509C22.7686 15.9108 22.4118 15.5541 21.9718 15.5541H17.4104C16.9704 15.5541 16.6136 15.9108 16.6136 16.3509V23.6491C16.6136 24.0892 16.9704 24.4459 17.4104 24.4459H21.9718C22.4118 24.4459 22.7686 24.0892 22.7686 23.6491C22.7686 23.209 22.4118 22.8523 21.9718 22.8523H18.2072V20.7968H20.5274C20.9674 20.7968 21.3242 20.44 21.3242 20C21.3242 19.5599 20.9674 19.2031 20.5274 19.2031H18.2072V17.1477H21.9718Z" fill="var(--red)"/>
<path d="M12.2709 9.88046C12.7109 9.88046 13.0677 9.52373 13.0677 9.08365C13.0677 8.64357 12.7109 8.28684 12.2709 8.28684H9.243C8.803 8.28684 8.44619 8.64357 8.44619 9.08365C8.44619 9.52373 8.803 9.88046 9.243 9.88046H12.2709Z" fill="var(--red)"/>
<path d="M15.3784 8.28684H14.9004C14.4604 8.28684 14.1035 8.64357 14.1035 9.08365C14.1035 9.52373 14.4604 9.88046 14.9004 9.88046H15.3784C15.8184 9.88046 16.1753 9.52373 16.1753 9.08365C16.1753 8.64357 15.8185 8.28684 15.3784 8.28684Z" fill="var(--red)"/>
<path d="M27.8884 30.1991H24.8605C24.4205 30.1991 24.0637 30.5559 24.0637 30.996C24.0637 31.436 24.4205 31.7928 24.8605 31.7928H27.8884C28.3284 31.7928 28.6852 31.436 28.6852 30.996C28.6852 30.5559 28.3285 30.1991 27.8884 30.1991Z" fill="var(--red)"/>
<path d="M30.9959 30.1991H30.5179C30.0779 30.1991 29.721 30.5559 29.721 30.996C29.721 31.436 30.0779 31.7928 30.5179 31.7928H30.9959C31.4359 31.7928 31.7928 31.436 31.7928 30.996C31.7928 30.5559 31.436 30.1991 30.9959 30.1991Z" fill="var(--red)"/>
</svg>
