<svg width="46" height="40" viewBox="0 0 46 40" fill="none" xmlns="http://www.w3.org/2000/svg">
<path d="M22.9904 3.86717C24.9821 3.86717 26.7025 2.59725 27.3205 0.729092C26.1414 1.05365 24.6386 1.24954 22.9904 1.24954C21.3424 1.24954 19.8396 1.05365 18.6607 0.729092C19.2784 2.5971 20.9986 3.86717 22.9904 3.86717Z" fill="var(--green)"/>
<path d="M45.9235 6.16445C45.8289 5.89902 45.6321 5.68072 45.3757 5.56185L36.6093 1.51497C34.7446 0.883281 32.8448 0.384306 30.9266 0.0196042C30.859 0.00637908 30.7918 0 30.7255 0C30.2507 0 29.8255 0.327827 29.7197 0.808598C29.0192 3.89238 26.2894 6.20117 22.9903 6.20117C19.6913 6.20117 16.9613 3.89253 16.261 0.808598C16.154 0.327827 15.7295 0 15.255 0C15.1887 0 15.1215 0.00637908 15.054 0.0196042C13.1359 0.384306 11.2361 0.883281 9.36842 1.51497L0.605157 5.5617C0.347189 5.68057 0.148969 5.89886 0.0588823 6.1643C-0.0343157 6.43284 -0.017512 6.7227 0.113805 6.976L3.91952 14.4866C4.09767 14.8431 4.46004 15.057 4.84341 15.057C4.94237 15.057 5.04272 15.0427 5.14168 15.013L9.36857 13.7602V38.961C9.36857 39.5332 9.8355 40 10.4093 40H35.5717C36.1439 40 36.6095 39.5331 36.6095 38.961V13.7605L40.8393 15.0133C40.9383 15.043 41.0385 15.0573 41.1373 15.0573C41.5199 15.0573 41.8808 14.8434 42.0615 14.4869L45.8686 6.97632C45.9968 6.72286 46.0152 6.433 45.9235 6.16445Z" fill="var(--green)"/>
</svg>
