<svg width="77" height="45" viewBox="0 0 77 45" fill="none" xmlns="http://www.w3.org/2000/svg">
<path fill-rule="evenodd" clip-rule="evenodd" d="M18.336 1.536H34.816V0H0V1.536H16.576V4.68383C15.4096 4.76879 14.3456 5.00484 13.384 5.392C12.168 5.872 11.144 6.52 10.312 7.336C9.48 8.136 8.848 9.064 8.416 10.12C7.984 11.176 7.768 12.272 7.768 13.408C7.768 14.864 8.008 16.08 8.488 17.056C8.984 18.016 9.632 18.824 10.432 19.48C11.232 20.12 12.136 20.648 13.144 21.064C14.168 21.48 15.216 21.856 16.288 22.192C16.3843 22.2222 16.4803 22.2524 16.576 22.2827V37.3329C16.4807 37.335 16.3847 37.336 16.288 37.336C15.312 37.336 14.44 37.24 13.672 37.048C12.904 36.856 12.224 36.624 11.632 36.352C11.04 36.064 10.52 35.76 10.072 35.44C9.624 35.104 9.24 34.8 8.92 34.528C8.6 34.24 8.328 34 8.104 33.808C7.88 33.616 7.696 33.52 7.552 33.52C7.296 33.52 7.072 33.64 6.88 33.88L6.208 34.936C7.424 36.312 8.84 37.4 10.456 38.2C12.072 38.984 14 39.376 16.24 39.376C16.3528 39.376 16.4648 39.3749 16.576 39.3726V44.992H18.336V39.2334C19.237 39.1044 20.0743 38.888 20.848 38.584C22.192 38.04 23.328 37.304 24.256 36.376C24.6834 35.9486 25.0633 35.4873 25.3956 34.992L76.072 34.992V33.992L25.9791 33.992C26.1219 33.7081 26.2516 33.4147 26.368 33.112C26.864 31.848 27.112 30.504 27.112 29.08C27.112 27.688 26.864 26.528 26.368 25.6C25.888 24.656 25.248 23.864 24.448 23.224C23.648 22.584 22.736 22.056 21.712 21.64C20.704 21.208 19.664 20.816 18.592 20.464L18.336 20.3798V6.70692C19.2522 6.75623 20.0415 6.90193 20.704 7.144C21.552 7.448 22.256 7.784 22.816 8.152C23.376 8.504 23.816 8.832 24.136 9.136C24.472 9.424 24.744 9.568 24.952 9.568C25.224 9.568 25.432 9.432 25.576 9.16L26.152 8.056C25 6.904 23.72 6.048 22.312 5.488C21.1213 5.00898 19.796 4.73484 18.336 4.66556V1.536ZM16.576 6.73209C15.7592 6.80442 15.0152 6.96572 14.344 7.216C13.416 7.568 12.632 8.048 11.992 8.656C11.368 9.264 10.888 9.968 10.552 10.768C10.232 11.568 10.072 12.408 10.072 13.288C10.072 14.44 10.312 15.392 10.792 16.144C11.288 16.896 11.936 17.536 12.736 18.064C13.536 18.592 14.44 19.04 15.448 19.408C15.8208 19.5362 16.1968 19.6643 16.576 19.7925V6.73209ZM18.336 22.8567V37.1616C18.8839 37.0623 19.4013 36.9204 19.888 36.736C20.944 36.32 21.832 35.76 22.552 35.056C23.288 34.352 23.848 33.52 24.232 32.56C24.616 31.584 24.808 30.544 24.808 29.44C24.808 28.24 24.56 27.256 24.064 26.488C23.584 25.704 22.944 25.056 22.144 24.544C21.344 24.016 20.432 23.576 19.408 23.224C19.0546 23.1006 18.6973 22.9782 18.336 22.8567Z" fill="black"/>
<path d="M30.912 19.456C31.432 18.904 32.008 18.464 32.64 18.136C33.272 17.808 34 17.644 34.824 17.644C35.488 17.644 36.072 17.756 36.576 17.98C37.088 18.196 37.512 18.508 37.848 18.916C38.192 19.316 38.452 19.8 38.628 20.368C38.804 20.936 38.892 21.564 38.892 22.252V29.992H36.744V22.252C36.744 21.332 36.532 20.62 36.108 20.116C35.692 19.604 35.056 19.348 34.2 19.348C33.568 19.348 32.976 19.5 32.424 19.804C31.88 20.108 31.376 20.52 30.912 21.04V29.992H28.764V12.316H30.912V19.456Z" fill="black"/>
<path d="M44.4028 17.836V29.992H42.2668V17.836H44.4028Z" fill="black"/>
<path d="M44.8588 14.02C44.8588 14.228 44.8148 14.424 44.7268 14.608C44.6468 14.784 44.5348 14.944 44.3908 15.088C44.2548 15.224 44.0908 15.332 43.8988 15.412C43.7148 15.492 43.5188 15.532 43.3108 15.532C43.1028 15.532 42.9068 15.492 42.7228 15.412C42.5468 15.332 42.3908 15.224 42.2548 15.088C42.1188 14.944 42.0108 14.784 41.9308 14.608C41.8508 14.424 41.8108 14.228 41.8108 14.02C41.8108 13.812 41.8508 13.616 41.9308 13.432C42.0108 13.24 42.1188 13.076 42.2548 12.94C42.3908 12.796 42.5468 12.684 42.7228 12.604C42.9068 12.524 43.1028 12.484 43.3108 12.484C43.5188 12.484 43.7148 12.524 43.8988 12.604C44.0908 12.684 44.2548 12.796 44.3908 12.94C44.5348 13.076 44.6468 13.24 44.7268 13.432C44.8148 13.616 44.8588 13.812 44.8588 14.02Z" fill="black"/>
<path d="M49.9404 20.272C50.3244 19.44 50.7964 18.792 51.3564 18.328C51.9164 17.856 52.6004 17.62 53.4084 17.62C53.6644 17.62 53.9084 17.648 54.1404 17.704C54.3804 17.76 54.5924 17.848 54.7764 17.968L54.6204 19.564C54.5724 19.764 54.4524 19.864 54.2604 19.864C54.1484 19.864 53.9844 19.84 53.7684 19.792C53.5524 19.744 53.3084 19.72 53.0364 19.72C52.6524 19.72 52.3084 19.776 52.0044 19.888C51.7084 20 51.4404 20.168 51.2004 20.392C50.9684 20.608 50.7564 20.88 50.5644 21.208C50.3804 21.528 50.2124 21.896 50.0604 22.312V29.992H47.9124V17.836H49.1364C49.3684 17.836 49.5284 17.88 49.6164 17.968C49.7044 18.056 49.7644 18.208 49.7964 18.424L49.9404 20.272Z" fill="black"/>
<path d="M60.3866 30.184C59.4266 30.184 58.6866 29.916 58.1666 29.38C57.6546 28.844 57.3986 28.072 57.3986 27.064V19.624H55.9346C55.8066 19.624 55.6986 19.588 55.6106 19.516C55.5226 19.436 55.4786 19.316 55.4786 19.156V18.304L57.4706 18.052L57.9626 14.296C57.9866 14.176 58.0386 14.08 58.1186 14.008C58.2066 13.928 58.3186 13.888 58.4546 13.888H59.5346V18.076H63.0506V19.624H59.5346V26.92C59.5346 27.432 59.6586 27.812 59.9066 28.06C60.1546 28.308 60.4746 28.432 60.8666 28.432C61.0906 28.432 61.2826 28.404 61.4426 28.348C61.6106 28.284 61.7546 28.216 61.8746 28.144C61.9946 28.072 62.0946 28.008 62.1746 27.952C62.2626 27.888 62.3386 27.856 62.4026 27.856C62.5146 27.856 62.6146 27.924 62.7026 28.06L63.3266 29.08C62.9586 29.424 62.5146 29.696 61.9946 29.896C61.4746 30.088 60.9386 30.184 60.3866 30.184Z" fill="black"/>
<path d="M72.3362 19.84C72.2402 20.016 72.0922 20.104 71.8922 20.104C71.7722 20.104 71.6362 20.06 71.4842 19.972C71.3322 19.884 71.1442 19.788 70.9202 19.684C70.7042 19.572 70.4442 19.472 70.1402 19.384C69.8362 19.288 69.4762 19.24 69.0602 19.24C68.7002 19.24 68.3762 19.288 68.0882 19.384C67.8002 19.472 67.5522 19.596 67.3442 19.756C67.1442 19.916 66.9882 20.104 66.8762 20.32C66.7722 20.528 66.7202 20.756 66.7202 21.004C66.7202 21.316 66.8082 21.576 66.9842 21.784C67.1682 21.992 67.4082 22.172 67.7042 22.324C68.0002 22.476 68.3362 22.612 68.7122 22.732C69.0882 22.844 69.4722 22.968 69.8642 23.104C70.2642 23.232 70.6522 23.376 71.0282 23.536C71.4042 23.696 71.7402 23.896 72.0362 24.136C72.3322 24.376 72.5682 24.672 72.7442 25.024C72.9282 25.368 73.0202 25.784 73.0202 26.272C73.0202 26.832 72.9202 27.352 72.7202 27.832C72.5202 28.304 72.2242 28.716 71.8322 29.068C71.4402 29.412 70.9602 29.684 70.3922 29.884C69.8242 30.084 69.1682 30.184 68.4242 30.184C67.5762 30.184 66.8082 30.048 66.1202 29.776C65.4322 29.496 64.8482 29.14 64.3682 28.708L64.8722 27.892C64.9362 27.788 65.0122 27.708 65.1002 27.652C65.1882 27.596 65.3002 27.568 65.4362 27.568C65.5802 27.568 65.7322 27.624 65.8922 27.736C66.0522 27.848 66.2442 27.972 66.4682 28.108C66.7002 28.244 66.9802 28.368 67.3082 28.48C67.6362 28.592 68.0442 28.648 68.5322 28.648C68.9482 28.648 69.3122 28.596 69.6242 28.492C69.9362 28.38 70.1962 28.232 70.4042 28.048C70.6122 27.864 70.7642 27.652 70.8602 27.412C70.9642 27.172 71.0162 26.916 71.0162 26.644C71.0162 26.308 70.9242 26.032 70.7402 25.816C70.5642 25.592 70.3282 25.404 70.0322 25.252C69.7362 25.092 69.3962 24.956 69.0122 24.844C68.6362 24.724 68.2482 24.6 67.8482 24.472C67.4562 24.344 67.0682 24.2 66.6842 24.04C66.3082 23.872 65.9722 23.664 65.6762 23.416C65.3802 23.168 65.1402 22.864 64.9562 22.504C64.7802 22.136 64.6922 21.692 64.6922 21.172C64.6922 20.708 64.7882 20.264 64.9802 19.84C65.1722 19.408 65.4522 19.032 65.8202 18.712C66.1882 18.384 66.6402 18.124 67.1762 17.932C67.7122 17.74 68.3242 17.644 69.0122 17.644C69.8122 17.644 70.5282 17.772 71.1602 18.028C71.8002 18.276 72.3522 18.62 72.8162 19.06L72.3362 19.84Z" fill="black"/>
</svg>
