<svg width="23" height="25" viewBox="0 0 23 25" fill="none" xmlns="http://www.w3.org/2000/svg">
<path fill-rule="evenodd" clip-rule="evenodd" d="M17.0278 7.11111C17.0278 10.21 14.5156 12.7222 11.4167 12.7222C8.31774 12.7222 5.80556 10.21 5.80556 7.11111C5.80556 4.01218 8.31774 1.5 11.4167 1.5C14.5156 1.5 17.0278 4.01218 17.0278 7.11111ZM13.9556 13.7556C16.6292 12.7334 18.5278 10.144 18.5278 7.11111C18.5278 3.18375 15.344 0 11.4167 0C7.48931 0 4.30556 3.18375 4.30556 7.11111C4.30556 10.144 6.20418 12.7334 8.87769 13.7556C3.79447 14.9099 0 19.4563 0 24.8889H1.5C1.5 19.4121 5.93984 14.9722 11.4167 14.9722C16.8935 14.9722 21.3333 19.4121 21.3333 24.8889H22.8333C22.8333 19.4563 19.0389 14.9099 13.9556 13.7556Z" fill="black"/>
</svg>
